<?xml version="1.0" encoding="utf-8"?>
<!-- Generator: Adobe Illustrator 26.5.0, SVG Export Plug-In . SVG Version: 6.00 Build 0)  -->
<svg version="1.1" id="selfie-id" xmlns="http://www.w3.org/2000/svg" xmlns:xlink="http://www.w3.org/1999/xlink" x="0px" y="0px"
	 viewBox="0 0 640 426.7" style="enable-background:new 0 0 640 426.7;" xml:space="preserve">
<style type="text/css">
	.st0{fill:#EAEFF2;}
</style>
<path class="st0" d="M403.2,121.5v2.5c0,2.4-1.9,4.3-4.3,4.3c0,0,0,0,0,0h-72.4c-2.4,0-4.3-1.9-4.3-4.3v-2.4
	c0-13.5,27-20.9,40.5-20.9S403.2,108,403.2,121.5z M360.6,87.7c11.1,1.1,21.1-7,22.2-18.1s-7-21.1-18.1-22.2
	c-11.1-1.1-21.1,7-22.2,18.1c-0.1,1.4-0.1,2.8,0,4.1C343.5,79.1,351,86.7,360.6,87.7z M640,27v189.1c0,14.9-14.9,27-33.2,27H308.5
	c-18.2,0-33.1-12.1-33.1-27V27c0-14.9,14.9-27,33.1-27h298.3C625.1,0,640,12.1,640,27z M423.4,40.5c0-7.4-6.1-13.5-13.5-13.5h-94.5
	c-7.5,0-13.5,6-13.5,13.5c0,0,0,0,0,0V135c0,7.5,6,13.5,13.5,13.5l0,0h94.5c7.4,0,13.5-6.1,13.5-13.5V40.5z M613.3,82
	c0-3-1.8-5.4-4-5.4H450.7c-2.2,0-4,2.4-4,5.4v14.4c0,3,1.8,5.4,4,5.4h158.6c2.2,0,4-2.4,4-5.4L613.3,82z M613.3,31.5
	c0-3-1.8-5.4-4-5.4H450.7c-2.2,0-4,2.4-4,5.4v14.4c0,3,1.8,5.4,4,5.4h158.6c2.2,0,4-2.4,4-5.4L613.3,31.5z"/>
<circle class="st0" cx="141.9" cy="213.8" r="70.9"/>
<path class="st0" d="M0,403c0-47.3,94.6-73.3,141.9-73.3s141.9,26,141.9,73.3v11.6c0,6.6-5.4,12-12,12H12c-6.6,0-12-5.4-12-12V403z"
	/>
</svg>
