<?xml version="1.0" encoding="utf-8"?>
<!-- Generator: Adobe Illustrator 26.5.0, SVG Export Plug-In . SVG Version: 6.00 Build 0)  -->
<svg version="1.1" id="Layer_1" xmlns="http://www.w3.org/2000/svg" xmlns:xlink="http://www.w3.org/1999/xlink" x="0px" y="0px"
	 viewBox="0 0 640 426.7" style="enable-background:new 0 0 640 426.7;" xml:space="preserve">
<style type="text/css">
	.st0{fill:#EAEFF2;}
</style>
<g id="id-back">
	<path class="st0" d="M581.8,0H58.2C26.2,0,0,21.3,0,47.4v331.9c0,26.1,26.2,47.4,58.2,47.4h523.6c32,0,58.2-21.3,58.2-47.4V47.4
		C640,21.3,613.8,0,581.8,0z M597.3,181.7c0,5.2-5.9,9.5-13.2,9.5H55.9c-7.3,0-13.2-4.3-13.2-9.5v-25.3c0-5.3,5.9-9.5,13.2-9.5
		h528.2c7.3,0,13.2,4.2,13.2,9.5L597.3,181.7z M597.3,93c0,5.2-5.9,9.5-13.2,9.5H55.9c-7.3,0-13.2-4.2-13.2-9.5V67.7
		c0-5.2,5.9-9.5,13.2-9.5h528.2c7.3,0,13.2,4.3,13.2,9.5L597.3,93z"/>
</g>
</svg>
