<?xml version="1.0" encoding="utf-8"?>
<!-- Generator: Adobe Illustrator 26.5.0, SVG Export Plug-In . SVG Version: 6.00 Build 0)  -->
<svg version="1.1" id="Layer_1" xmlns="http://www.w3.org/2000/svg" xmlns:xlink="http://www.w3.org/1999/xlink" x="0px" y="0px"
	 viewBox="0 0 640 426.7" style="enable-background:new 0 0 640 426.7;" xml:space="preserve">
<style type="text/css">
	.st0{fill:#EAEFF2;}
</style>
<g id="id-front">
	<path class="st0" d="M224.3,213.3v3.9c0,4.4-3.6,8-8,8H90.1c-4.4,0-8-3.6-8-8v-3.9c0-23.7,47.4-36.7,71.1-36.7
		S224.3,189.6,224.3,213.3z M153.2,154c19.6,0,35.6-15.9,35.6-35.6c0-19.6-15.9-35.6-35.6-35.6c-19.6,0-35.6,15.9-35.6,35.6
		c0,0,0,0,0,0C117.6,138.1,133.5,154,153.2,154C153.1,154,153.1,154,153.2,154z M640,47.4v331.9c0,26.1-26.2,47.4-58.2,47.4H58.2
		c-32,0-58.2-21.3-58.2-47.4V47.4C0,21.3,26.2,0,58.2,0h523.6C613.8,0,640,21.3,640,47.4z M259.8,71.1c0-13.1-10.6-23.7-23.7-23.7
		H70.2C57.1,47.4,46.5,58,46.5,71c0,0,0,0,0,0V237c0,13.1,10.6,23.7,23.7,23.7c0,0,0,0,0,0h165.9c13.1,0,23.7-10.6,23.7-23.7V71.1z
		 M593.1,144c0-5.2-3.1-9.5-7-9.5H307.6c-3.9,0-7,4.3-7,9.5v25.3c0,5.2,3.1,9.5,7,9.5h278.4c3.8,0,7-4.3,7-9.5L593.1,144z
		 M593.1,55.4c0-5.3-3.1-9.5-7-9.5H307.6c-3.9,0-7,4.2-7,9.5v25.3c0,5.2,3.1,9.5,7,9.5h278.4c3.8,0,7-4.3,7-9.5L593.1,55.4z"/>
</g>
</svg>
